<?xml version="1.0" standalone="no"?><!DOCTYPE svg PUBLIC "-//W3C//DTD SVG 1.1//EN" "http://www.w3.org/Graphics/SVG/1.1/DTD/svg11.dtd"><svg t="1724244992494" class="icon" viewBox="0 0 1024 1024" version="1.1" xmlns="http://www.w3.org/2000/svg" p-id="5303" xmlns:xlink="http://www.w3.org/1999/xlink" width="200" height="200"><path d="M477.41 443.11l1.66-5c-6.65-5-13.3-6.65-26.59-6.65l-6.65 3.32h-1.66c1.66 16.64 26.59 23.29 33.24 8.33zM651.92 429.81c-1.66 1.66-3.32 1.66-3.32 6.65 5 5 8.31 6.65 16.62 10 6.65-5 10-5 16.62-15-3.32-3.32-6.65-5-13.3-6.65-9.97 0.02-13.3 3.34-16.62 5z" fill="#1485B1" p-id="5304"></path><path d="M512 0C229.23 0 0 229.23 0 512s229.23 512 512 512 512-229.23 512-512S794.77 0 512 0zM337.8 669.14c-23.27-5-39.89-44.87-48.2-64.82-24.93-59.83-73.13-204.43-39.89-280.88 11.63-24.93 34.9-41.55 63.16-48.2l31.58-3.32c34.9 0 61.49 10 88.09 13.3v1.66c-31.58 41.55-39.89 64.82-49.86 131.3l1.65 64.82-3.33 34.9c-6.65 41.55 15 64.82 31.58 83.1l-51.52 58.17c-4.98 3.32-11.63 13.3-23.26 9.97zM401 436.46c6.65-5 15-8.31 23.27-13.3l26.59-6.65c11.63 0 19.94 0 26.59 5 16.62 11.63 23.27 76.45 15 103-3.32 16.62-10 29.92-16.62 44.87l-10 33.24c-38.23 0-59.83-28.25-66.48-61.49-3.32-16.62 0-36.56 3.32-53.18z m93.07 226c-23.27 18.28-49.86 21.61-83.1 10l-1.66-1.66c15-5 36.56-6.65 48.2-15l28.25-29.92c23.24 0.05 18.24 24.98 8.24 36.61z m174.51-43.21c-8.31 13.3-3.32 36.56-6.65 53.18-11.63 66.48 0 137.95-59.83 156.23-11.63 3.32-26.59 10-41.55 5-48.2-13.3-39.89-96.4-39.89-156.23 0-33.24 3.32-56.51-21.61-66.48-5 0-10-3.32-16.62-1.66h-1.66L494 569.42c5-13.3 11.63-24.93 15-39.89 5-16.62 5-41.55 1.66-59.83-6.66-46.54-16.66-84.76-76.47-68.14A198.08 198.08 0 0 0 401 414.85c3.32-59.83 29.92-114.68 74.79-134.62l29.92-8.31 16.62-1.66c94.74 0 147.92 56.51 172.85 123-58.18-3.34-89.8 19.93-71.52 79.74 13.3 48.2 41.55 89.75 66.48 129.64-8.31 6.67-16.62 8.36-21.6 16.64z m28.25-98.06c3.32 19.94-3.32 34.9-6.65 49.86a1.63 1.63 0 0 1-1.66 1.66l-10-19.94c-15-24.93-28.25-49.86-38.23-79.78-3.32-11.63-5-34.9 1.66-44.87 10-15 33.24-15 56.51-13.3l-6.65 54.85z m-11.63 128c0-18.28 5-19.94 16.62-26.59 8.31 1.66 15 8.31 24.93 10 18.28 3.32 38.23-3.32 56.51-5-11.68 16.61-68.19 36.56-98.1 21.6z m94.74-242.66c-11.63 56.51-31.58 108-56.51 151.24-6.65 11.63-11.63 24.93-19.94 33.24v1.66c-5-3.32 8.31-31.58 10-44.87 5-28.25-10-53.18-5-79.78 3.32-16.62 11.63-46.54 6.65-66.48-10-44.87-43.21-86.43-74.79-109.69-10-8.31-23.27-13.3-34.9-21.61l-1.66-1.66 29.92-5c59.83 0 91.41 13.3 124.65 38.23 8.31 6.65 18.28 16.62 23.27 26.59 8.24 19.97 3.25 56.54-1.74 78.14z" fill="#1485B1" p-id="5305"></path><path d="M726.71 632.58c-10-1.66-16.62-8.31-24.93-10-11.63 6.65-16.62 8.31-16.62 26.59 29.92 15 86.43-5 98.06-21.61-18.28 1.69-38.22 8.34-56.51 5.02zM399.29 541.17c6.65 33.24 28.25 61.49 66.48 61.49l10-33.24c6.65-15 13.3-28.25 16.62-44.87 8.31-26.59 1.66-91.41-15-103-6.65-5-15-5-26.59-5l-26.59 6.65c-8.31 5-16.62 8.31-23.27 13.3l1.67 51.5c-3.32 16.6-6.61 36.55-3.32 53.17z m46.54-106.37l6.65-3.32c13.3 0 19.94 1.66 26.59 6.65l-1.66 5c-6.65 15-31.58 8.31-33.24-8.31zM758.29 301.84c-33.24-24.93-64.82-38.23-124.65-38.23l-29.92 5 1.66 1.66c11.63 8.31 24.93 13.3 34.9 21.61 31.58 23.27 64.82 64.82 74.79 109.69 5 19.94-3.32 49.86-6.65 66.48-5 26.59 10 51.52 5 79.78-1.66 13.3-15 41.55-10 44.87V591c8.31-8.31 13.3-21.61 19.94-33.24 24.93-43.21 44.87-94.74 56.51-151.24 5-21.61 10-58.17 1.66-78.11-4.96-9.95-14.93-19.93-23.24-26.57z" fill="#FFFFFF" p-id="5306"></path><path d="M641.95 428.15c-6.65 10-5 33.24-1.66 44.87 10 29.92 23.27 54.85 38.23 79.78l10 19.94a1.63 1.63 0 0 0 1.66-1.66c3.32-15 10-29.92 6.65-49.86l-5-51.52 6.65-54.85c-23.29-1.66-46.56-1.66-56.53 13.3z m23.27 18.28c-8.31-3.32-11.63-5-16.62-10 0-5 1.66-5 3.32-6.65 3.32-1.66 6.65-5 16.62-5 6.65 1.66 10 3.32 13.3 6.65-6.65 10.02-9.98 10.02-16.63 15zM485.72 625.93l-28.25 29.92c-11.63 8.31-33.24 10-48.2 15l1.66 1.66c33.24 11.63 59.83 8.31 83.1-10 9.97-11.65 14.97-36.58-8.31-36.58z" fill="#FFFFFF" p-id="5307"></path><path d="M623.66 473c-18.28-59.83 13.3-83.1 71.47-79.78-24.93-66.48-78.11-123-172.85-123l-16.62 1.66-29.92 8.31C430.87 300.17 404.28 355 401 414.85a198.08 198.08 0 0 1 33.24-13.3C494 384.94 504 423.16 510.65 469.7 514 488 514 512.91 509 529.53c-3.32 15-10 26.59-15 39.89l-13.3 39.89h1.66C489 607.65 494 611 499 611c24.93 10 21.61 33.24 21.61 66.48 0 59.83-8.31 142.93 39.89 156.23 15 5 29.92-1.66 41.55-5 59.83-18.28 48.2-89.75 59.83-156.23 3.32-16.62-1.66-39.89 6.65-53.18 5-8.31 13.3-10 21.61-16.62C665.21 562.77 637 521.22 623.66 473z" fill="#FFFFFF" p-id="5308"></path><path d="M381 517.9l3.32-34.9-1.66-64.82c10-66.48 18.28-89.75 49.86-131.3v-1.66c-26.59-3.32-53.18-13.3-88.09-13.3l-31.58 3.32c-28.25 6.65-51.52 23.27-63.16 48.2-33.24 76.45 15 221 39.89 280.88 8.31 19.94 24.93 59.83 48.2 64.82 11.63 3.32 18.28-6.65 23.27-10L412.59 601C396 582.72 374.36 559.45 381 517.9z" fill="#FFFFFF" p-id="5309"></path></svg>