<?xml version="1.0" standalone="no"?><!DOCTYPE svg PUBLIC "-//W3C//DTD SVG 1.1//EN" "http://www.w3.org/Graphics/SVG/1.1/DTD/svg11.dtd"><svg t="1722948978411" class="icon" viewBox="0 0 1024 1024" version="1.1" xmlns="http://www.w3.org/2000/svg" p-id="19845" xmlns:xlink="http://www.w3.org/1999/xlink" width="200" height="200"><path d="M388.288 216.768c0-13.696 11.072-24.768 24.768-24.768h197.888c13.696 0 24.768 11.072 24.768 24.768v12.352a24.768 24.768 0 0 1-24.768 24.704H413.056a24.768 24.768 0 0 1-24.768-24.704v-12.352zM481.088 253.824h61.824V377.6h-61.824V253.824z" fill="#2BC9A5" p-id="19846"></path><path d="M109.952 507.456c0-20.48 16.64-37.12 37.12-37.12H233.6v185.6H147.072a37.12 37.12 0 0 1-37.12-37.12v-111.36zM790.4 470.336h98.944c13.632 0 24.704 11.072 24.704 24.768v136.064a24.768 24.768 0 0 1-24.704 24.704h-99.008V470.4z" fill="#4FD6B2" p-id="19847"></path><path d="M202.752 408.512c0-51.264 41.536-92.8 92.8-92.8h432.96c51.2 0 92.8 41.536 92.8 92.8v309.248c0 51.2-41.6 92.8-92.8 92.8H295.488c-51.2 0-92.8-41.6-92.8-92.8V408.512z" fill="#B9EFDD" p-id="19848"></path><path d="M326.4 501.248a30.912 30.912 0 1 1 61.824 0v123.712a30.912 30.912 0 0 1-61.824 0V501.248zM635.712 501.248a30.912 30.912 0 0 1 61.824 0v123.712a30.912 30.912 0 0 1-61.824 0V501.248z" fill="#2BC9A5" p-id="19849"></path></svg>