<?xml version="1.0" standalone="no"?><!DOCTYPE svg PUBLIC "-//W3C//DTD SVG 1.1//EN" "http://www.w3.org/Graphics/SVG/1.1/DTD/svg11.dtd"><svg t="1722948865842" class="icon" viewBox="0 0 1024 1024" version="1.1" xmlns="http://www.w3.org/2000/svg" p-id="13252" xmlns:xlink="http://www.w3.org/1999/xlink" width="200" height="200"><path d="M627.200461 592.0768v-0.512a95.1808 95.1808 0 0 1 28.0576-66.56c53.0944-53.9136 87.04-137.1136 87.04-230.4C742.400461 131.7888 639.232461 0 512.000461 0S281.600461 131.7888 281.600461 294.4c0 93.3888 34.048 176.5888 87.04 230.4a95.1808 95.1808 0 0 1 28.0576 66.56v0.512a93.184 93.184 0 0 1-50.2272 82.7392l-305.2032 158.72A76.8 76.8 0 0 0 0.000461 901.6832V947.2a76.8 76.8 0 0 0 76.8 76.8h870.4a76.8 76.8 0 0 0 76.8-76.8v-45.5168a76.8 76.8 0 0 0-41.3696-68.1472l-305.2032-158.72a93.184 93.184 0 0 1-50.2272-82.7392z" fill="#00C080" p-id="13253"></path></svg>